<?xml version="1.0" standalone="no"?>
<!DOCTYPE svg PUBLIC "-//W3C//DTD SVG 20010904//EN"
 "http://www.w3.org/TR/2001/REC-SVG-20010904/DTD/svg10.dtd">
<svg version="1.0" xmlns="http://www.w3.org/2000/svg"
 width="260.000000pt" height="260.000000pt" viewBox="0 0 260.000000 260.000000"
 preserveAspectRatio="xMidYMid meet">
<metadata>
Created by potrace 1.14, written by Peter Selinger 2001-2017
</metadata>
<g transform="translate(0.000000,260.000000) scale(0.100000,-0.100000)"
fill="#000000" stroke="none">
<path d="M0 1300 l0 -1300 1300 0 1300 0 0 1300 0 1300 -1300 0 -1300 0 0
-1300z m2345 810 c-4 -6 -47 -37 -96 -70 l-89 -61 0 -674 0 -675 50 0 c49 0
50 -1 50 -30 0 -29 1 -30 50 -30 l50 0 0 -35 0 -35 -1060 0 -1060 0 0 35 0 35
50 0 c49 0 50 1 50 30 0 29 1 30 50 30 l50 0 0 675 0 675 -95 62 c-52 35 -95
66 -95 71 0 4 473 7 1051 7 714 0 1048 -3 1044 -10z"/>
<path d="M802 2015 l-52 -36 0 -674 0 -675 50 0 c49 0 50 -1 50 -30 l0 -30
100 0 100 0 0 30 c0 29 1 30 50 30 l50 0 0 674 0 673 -55 37 c-53 35 -57 36
-147 36 -90 0 -95 -1 -146 -35z"/>
<path d="M1503 2013 l-53 -36 0 -673 0 -674 55 0 c54 0 55 0 55 -30 l0 -30 95
0 95 0 0 30 c0 29 1 30 50 30 l50 0 0 675 0 674 -52 36 c-51 34 -55 35 -148
34 -92 0 -97 -1 -147 -36z"/>
</g>
</svg>
